<?xml version="1.0" encoding="UTF-8"?>
<svg width="21px" height="30px" viewBox="0 0 21 30" version="1.1" xmlns="http://www.w3.org/2000/svg" xmlns:xlink="http://www.w3.org/1999/xlink">
    <g id="icon">
        <g id="Design-Pattern---Flow-3-Copy-16" transform="translate(-219.000000, -596.000000)">
            <path d="M236.84,603.494449 C237.523,603.958449 238.457,603.783449 238.922,603.095449 C239.386,602.412449 239.211,601.478449 238.523,601.013449 C237.914,600.599449 237.261,600.259449 236.59,599.958449 L237.207,597.939449 C237.449,597.146449 237.004,596.306449 236.211,596.064449 C235.418,595.826449 234.582,596.267449 234.336,597.060449 L233.726,599.056449 C233.297,598.978449 232.859,598.927449 232.422,598.892449 L232.715,597.939449 C232.957,597.146449 232.511,596.306449 231.719,596.064449 C230.929,595.826449 230.09,596.267449 229.843,597.060449 L229.234,599.052449 C223.422,600.080449 219,605.060449 219,611.044449 C219,614.513449 220.492,617.642449 222.875,619.865449 L221.793,623.408449 C221.551,624.201449 221.996,625.037449 222.789,625.283449 C222.933,625.330449 223.082,625.349449 223.23,625.349449 C223.871,625.349449 224.465,624.931449 224.664,624.287449 L225.445,621.728449 C225.828,621.935449 226.222,622.126449 226.629,622.294449 L226.289,623.412449 C226.047,624.204449 226.492,625.040449 227.285,625.287449 C227.429,625.333449 227.578,625.353449 227.726,625.353449 C228.367,625.353449 228.961,624.935449 229.16,624.290449 L229.527,623.087449 C230.156,623.185449 230.793,623.247449 231.449,623.247449 C233.469,623.247449 235.48,622.763449 237.258,621.841449 C237.992,621.458449 238.281,620.556449 237.898,619.822449 C237.515,619.087449 236.613,618.798449 235.875,619.181449 C234.504,619.892449 233.011,620.251449 231.445,620.251449 C231.093,620.251449 230.75,620.228449 230.41,620.193449 L235.707,602.861449 C236.101,603.037449 236.48,603.247449 236.84,603.494449 Z M223.89,616.537449 C222.707,615.001449 222,613.103449 222,611.040449 C222,607.080449 224.593,603.704449 228.207,602.412449 L223.89,616.537449 Z M227.515,619.392449 C227.109,619.212449 226.719,619.001449 226.347,618.771449 L231.519,601.849449 C231.969,601.853449 232.41,601.892449 232.843,601.954449 L227.515,619.392449 Z" id="Page-1"></path>
        </g>
    </g>
</svg>