<?xml version="1.0" encoding="UTF-8"?>
<svg width="23px" height="28px" viewBox="0 0 23 28" version="1.1" xmlns="http://www.w3.org/2000/svg" xmlns:xlink="http://www.w3.org/1999/xlink">
    <g id="icon">
        <g id="Design-Pattern---Flow-3-Copy-16" transform="translate(-218.000000, -408.000000)">
            <path d="M237.395522,410.698795 C239.385652,410.700594 240.998169,412.285237 241,414.240964 L241,432.457831 C240.998169,434.413558 239.385652,435.998201 237.395522,436 L221.604478,436 C219.614348,435.998201 218.001831,434.413558 218,432.457831 L218,414.240964 C218.001831,412.285237 219.614348,410.700594 221.604478,410.698795 L224.286209,410.698795 C224.681672,409.115502 226.124378,408.001799 227.783582,408 L231.216418,408 C232.875622,408.001799 234.318328,409.115502 234.713791,410.698795 L237.395522,410.698795 Z M225.895522,411.542169 L225.895522,412.722892 L233.104478,412.722892 L233.104478,411.542169 C233.102647,410.517976 232.258627,409.688546 231.216418,409.686747 L227.783582,409.686747 C226.741373,409.688546 225.897353,410.517976 225.895522,411.542169 Z M235.809552,420.144578 C236.283284,420.144578 236.667761,419.766747 236.667761,419.301205 C236.667761,418.835663 236.283284,418.457831 235.809552,418.457831 L223.194109,418.457831 C222.720378,418.457831 222.3359,418.835663 222.3359,419.301205 C222.3359,419.766747 222.720378,420.144578 223.194109,420.144578 L235.809552,420.144578 Z M235.809552,425.204819 C236.283284,425.204819 236.667761,424.826988 236.667761,424.361446 C236.667761,423.895904 236.283284,423.518072 235.809552,423.518072 L223.194109,423.518072 C222.720378,423.518072 222.3359,423.895904 222.3359,424.361446 C222.3359,424.826988 222.720378,425.204819 223.194109,425.204819 L235.809552,425.204819 Z M227.570746,429.815261 C228.044478,429.815261 228.428955,429.43743 228.428955,428.971888 C228.428955,428.506345 228.044478,428.128514 227.570746,428.128514 L223.194109,428.128514 C222.720378,428.128514 222.3359,428.506345 222.3359,428.971888 C222.3359,429.43743 222.720378,429.815261 223.194109,429.815261 L227.570746,429.815261 Z" id="Combined-Shape"></path>
        </g>
    </g>
</svg>