<?xml version="1.0" encoding="UTF-8"?>
<svg width="28px" height="28px" viewBox="0 0 28 28" version="1.1" xmlns="http://www.w3.org/2000/svg" xmlns:xlink="http://www.w3.org/1999/xlink">
    <g id="icon">
        <g id="Design-Pattern---Flow-3-Copy-16" transform="translate(-215.000000, -686.000000)">
            <g id="Group" transform="translate(215.000000, 686.000000)">
                <path d="M22.9001411,2.21798257 C21.8000171,0.864653859 20.1219634,5.42827207e-16 18.241959,8.8817842e-16 L18.241959,0 L6,0 L6,8.8817842e-16 C2.6862915,1.4968968e-15 4.82366169e-16,2.6862915 8.8817842e-16,6 L0,6 L2.66453526e-15,17.5905148 C2.95443169e-15,19.9576988 1.37084565,22.0047046 3.36198113,22.9809764 C2.52301917,21.9489188 2.02016325,20.632663 2.02016325,19.198959 L2.02016325,7.60844419 C2.02016325,4.29473569 4.70645475,1.60844419 8.02016325,1.60844419 L8.02016325,1.60844419 L20.2621222,1.60844419 L20.2621222,1.60844419 C21.2086467,1.60844419 22.1039805,1.82761781 22.9001411,2.21798257 Z" id="Combined-Shape"></path>
                <rect id="Rectangle-Copy-3" x="4" y="3" width="24" height="25" rx="6"></rect>
            </g>
        </g>
    </g>
</svg>