<?xml version="1.0" encoding="UTF-8"?>
<svg width="29px" height="29px" viewBox="0 0 29 29" version="1.1" xmlns="http://www.w3.org/2000/svg" xmlns:xlink="http://www.w3.org/1999/xlink">
    <g id="icon">
        <g id="Design-Pattern---Flow-3-Copy-16" transform="translate(-215.000000, -501.000000)">
            <path d="M229.076947,528.897322 L227.016594,529.818449 C226.12099,530.220233 225.066451,529.93794 224.491037,529.141718 L223.169287,527.314161 C222.995657,527.074018 222.729605,526.919724 222.435325,526.889561 L220.190514,526.658699 C219.213316,526.55893 218.44107,525.787071 218.341688,524.809486 L218.110439,522.565062 C218.080276,522.271941 217.925982,522.004343 217.687386,521.83226 L215.858282,520.508963 C215.06206,519.933549 214.779767,518.87901 215.181551,517.983406 L216.104225,515.923053 C216.225263,515.654294 216.225263,515.346092 216.104225,515.076947 L215.181551,513.016594 C214.779767,512.12099 215.06206,511.066451 215.858282,510.491037 L217.687386,509.169287 C217.925982,508.995657 218.080276,508.729605 218.110439,508.435325 L218.341688,506.190514 C218.44107,505.213316 219.213316,504.44107 220.190514,504.341688 L222.435325,504.110439 C222.729605,504.080276 222.995657,503.925982 223.169287,503.687386 L224.491037,501.858282 C225.066451,501.06206 226.12099,500.779767 227.016594,501.181551 L229.076947,502.104225 C229.346092,502.225263 229.654294,502.225263 229.923053,502.104225 L231.983406,501.181551 C232.87901,500.779767 233.933549,501.06206 234.508963,501.858282 L235.83226,503.687386 C236.004343,503.925982 236.271941,504.080276 236.565062,504.110439 L238.809486,504.341688 C239.787071,504.44107 240.55893,505.213316 240.658699,506.190514 L240.889561,508.435325 C240.919724,508.729605 241.074018,508.995657 241.314161,509.169287 L243.141718,510.491037 C243.93794,511.066451 244.220233,512.12099 243.818449,513.016594 L242.897322,515.076947 C242.776284,515.346092 242.776284,515.654294 242.897322,515.923053 L243.818449,517.983406 C244.220233,518.87901 243.93794,519.933549 243.141718,520.508963 L241.314161,521.83226 C241.074018,522.004343 240.919724,522.271941 240.889561,522.565062 L240.658699,524.809486 C240.55893,525.787071 239.787071,526.55893 238.809486,526.658699 L236.565062,526.889561 C236.271941,526.919724 236.004343,527.074018 235.83226,527.314161 L234.508963,529.141718 C233.933549,529.93794 232.87901,530.220233 231.983406,529.818449 L229.923053,528.897322 C229.654294,528.776284 229.346092,528.776284 229.076947,528.897322 Z M223.903249,513.540963 L222.146458,515.299301 L228.04677,521.199227 L237.105673,512.140712 L235.347335,510.383921 L228.04677,517.684485 L223.903249,513.540963 Z" id="Page-1"></path>
        </g>
    </g>
</svg>